<svg viewBox="0 0 800 380" xmlns="http://www.w3.org/2000/svg" font-family="Segoe UI, Arial, sans-serif">
  <rect x="0" y="0" width="800" height="380" fill="#ffffff" stroke="#9aa5b1"/>
  <rect x="0" y="0" width="800" height="40" fill="#2f3b52"/>
  <text x="16" y="26" fill="#ffffff" font-size="15" font-weight="bold">Database Diff Wizard</text>
  <text x="650" y="26" fill="#c8d3e6" font-size="12">Step 4 of 4</text>
  <text x="16" y="62" font-size="13" fill="#555">Review your selections, then click Finish to run the comparison.</text>

  <rect x="40" y="84" width="720" height="260" fill="#f9fafb" stroke="#d3d9e0"/>
  <text x="56" y="108" font-size="12" fill="#333" font-weight="bold">Source:</text>
  <text x="160" y="108" font-size="12" fill="#10366b">DEV_CONNECTION  /  Schema: APP_DEV</text>

  <text x="56" y="132" font-size="12" fill="#333" font-weight="bold">Destination:</text>
  <text x="160" y="132" font-size="12" fill="#a3221c">PROD_CONNECTION  /  Schema: APP_PROD</text>

  <text x="56" y="160" font-size="12" fill="#333" font-weight="bold">Object Types:</text>
  <text x="160" y="160" font-size="11" fill="#444">Tables, Views, Indexes, Sequences, Synonyms,</text>
  <text x="160" y="176" font-size="11" fill="#444">Triggers, Procedures, Functions, Package Specs,</text>
  <text x="160" y="192" font-size="11" fill="#444">Package Bodies</text>

  <text x="56" y="218" font-size="12" fill="#333" font-weight="bold">Filtered Objects:</text>
  <text x="160" y="218" font-size="11" fill="#444">Tables → EMPLOYEE, EMP_BONUS, EMP_HISTORY</text>
  <text x="160" y="234" font-size="11" fill="#444">Views, Indexes, ... → All Objects</text>

  <text x="56" y="266" font-size="12" fill="#333" font-weight="bold">Note:</text>
  <text x="160" y="266" font-size="11" fill="#444">การเปรียบเทียบจะใช้เวลาขึ้นกับขนาด Schema</text>
  <text x="160" y="282" font-size="11" fill="#444">และจำนวน Object ที่เลือกไว้</text>

  <line x1="0" y1="346" x2="800" y2="346" stroke="#d3d9e0"/>
  <text x="20" y="372" font-size="12" fill="#888">Help</text>
  <rect x="560" y="354" width="60" height="24" fill="#f4f6f8" stroke="#aab2bd"/>
  <text x="572" y="370" font-size="11" fill="#555">&lt; Back</text>
  <rect x="628" y="354" width="60" height="24" fill="#e5e7eb" stroke="#aab2bd"/>
  <text x="636" y="370" font-size="11" fill="#999">Next &gt;</text>
  <rect x="696" y="354" width="46" height="24" fill="#2f6fed"/>
  <text x="704" y="370" font-size="11" fill="#fff">Finish</text>
  <rect x="750" y="354" width="40" height="24" fill="#f4f6f8" stroke="#aab2bd"/>
  <text x="758" y="370" font-size="11" fill="#555">Cancel</text>
</svg>