<svg viewBox="0 0 800 420" xmlns="http://www.w3.org/2000/svg" font-family="Segoe UI, Arial, sans-serif">
  <rect x="0" y="0" width="800" height="420" fill="#ffffff" stroke="#9aa5b1"/>
  <rect x="0" y="0" width="800" height="40" fill="#2f3b52"/>
  <text x="16" y="26" fill="#ffffff" font-size="15" font-weight="bold">Database Diff Wizard</text>
  <text x="650" y="26" fill="#c8d3e6" font-size="12">Step 2 of 4</text>
  <text x="16" y="62" font-size="13" fill="#555">Select the object types you want to include in the comparison.</text>

  <g font-size="13" fill="#222">
    <rect x="50" y="86" width="16" height="16" fill="#2f6fed"/><text x="58" y="98" fill="#fff" font-size="11" text-anchor="middle">✓</text>
    <text x="78" y="99">Tables</text>
    <rect x="50" y="116" width="16" height="16" fill="#2f6fed"/><text x="58" y="128" fill="#fff" font-size="11" text-anchor="middle">✓</text>
    <text x="78" y="129">Views</text>
    <rect x="50" y="146" width="16" height="16" fill="#2f6fed"/><text x="58" y="158" fill="#fff" font-size="11" text-anchor="middle">✓</text>
    <text x="78" y="159">Indexes</text>
    <rect x="50" y="176" width="16" height="16" fill="#2f6fed"/><text x="58" y="188" fill="#fff" font-size="11" text-anchor="middle">✓</text>
    <text x="78" y="189">Sequences</text>
    <rect x="50" y="206" width="16" height="16" fill="#2f6fed"/><text x="58" y="218" fill="#fff" font-size="11" text-anchor="middle">✓</text>
    <text x="78" y="219">Synonyms</text>
    <rect x="50" y="236" width="16" height="16" fill="#2f6fed"/><text x="58" y="248" fill="#fff" font-size="11" text-anchor="middle">✓</text>
    <text x="78" y="249">Triggers</text>
    <rect x="50" y="266" width="16" height="16" fill="#2f6fed"/><text x="58" y="278" fill="#fff" font-size="11" text-anchor="middle">✓</text>
    <text x="78" y="279">Database Links</text>

    <rect x="320" y="86" width="16" height="16" fill="#2f6fed"/><text x="328" y="98" fill="#fff" font-size="11" text-anchor="middle">✓</text>
    <text x="348" y="99">Procedures</text>
    <rect x="320" y="116" width="16" height="16" fill="#2f6fed"/><text x="328" y="128" fill="#fff" font-size="11" text-anchor="middle">✓</text>
    <text x="348" y="129">Functions</text>
    <rect x="320" y="146" width="16" height="16" fill="#2f6fed"/><text x="328" y="158" fill="#fff" font-size="11" text-anchor="middle">✓</text>
    <text x="348" y="159">Package Specs</text>
    <rect x="320" y="176" width="16" height="16" fill="#2f6fed"/><text x="328" y="188" fill="#fff" font-size="11" text-anchor="middle">✓</text>
    <text x="348" y="189">Package Bodies</text>
    <rect x="320" y="206" width="16" height="16" fill="none" stroke="#9aa5b1"/>
    <text x="348" y="219" fill="#999">Types</text>
    <rect x="320" y="236" width="16" height="16" fill="none" stroke="#9aa5b1"/>
    <text x="348" y="249" fill="#999">Materialized Views</text>
    <rect x="320" y="266" width="16" height="16" fill="none" stroke="#9aa5b1"/>
    <text x="348" y="279" fill="#999">Materialized View Logs</text>
  </g>

  <rect x="560" y="86" width="190" height="200" fill="#f4f6f8" stroke="#d3d9e0"/>
  <text x="572" y="106" font-size="11" fill="#555">เลือกทั้งหมด:</text>
  <rect x="572" y="116" width="80" height="22" fill="#ffffff" stroke="#aab2bd"/>
  <text x="582" y="131" font-size="10" fill="#444">Select All</text>
  <rect x="658" y="116" width="80" height="22" fill="#ffffff" stroke="#aab2bd"/>
  <text x="668" y="131" font-size="10" fill="#444">Deselect All</text>
  <text x="572" y="160" font-size="10" fill="#888">งานเทียบ Structure ทั่วไป</text>
  <text x="572" y="174" font-size="10" fill="#888">แนะนำติ๊กทุกตัวยกเว้น</text>
  <text x="572" y="188" font-size="10" fill="#888">Materialized View ถ้าไม่ได้ใช้งาน</text>

  <line x1="0" y1="378" x2="800" y2="378" stroke="#d3d9e0"/>
  <text x="20" y="404" font-size="12" fill="#888">Help</text>
  <rect x="560" y="386" width="60" height="24" fill="#f4f6f8" stroke="#aab2bd"/>
  <text x="572" y="402" font-size="11" fill="#555">&lt; Back</text>
  <rect x="628" y="386" width="60" height="24" fill="#2f6fed"/>
  <text x="638" y="402" font-size="11" fill="#fff">Next &gt;</text>
  <rect x="696" y="386" width="46" height="24" fill="#f4f6f8" stroke="#aab2bd"/>
  <text x="706" y="402" font-size="11" fill="#555">Finish</text>
  <rect x="750" y="386" width="40" height="24" fill="#f4f6f8" stroke="#aab2bd"/>
  <text x="758" y="402" font-size="11" fill="#555">Cancel</text>
</svg>